<?xml version="1.0" encoding="utf-8"?>
<!-- Generator: Adobe Illustrator 25.0.0, SVG Export Plug-In . SVG Version: 6.00 Build 0)  -->
<svg version="1.1" id="ab80713a-a851-46d9-b7e4-877a3942e50e"
	 xmlns="http://www.w3.org/2000/svg" xmlns:xlink="http://www.w3.org/1999/xlink" x="0px" y="0px" viewBox="0 0 797.6 517.3"
	 style="enable-background:new 0 0 797.6 517.3;" xml:space="preserve">
<style type="text/css">
	.st0{fill:#E6E6E6;}
	.st1{fill:#F2F2F2;}
	.st2{fill:#FFFFFF;}
	.st3{fill:#3F3D56;}
	.st4{fill:#360A14;}
	.st5{fill:#FFB7B7;}
	.st6{fill:#020202;}
	.st7{fill:#2F2E41;}
	.st8{fill:#FFB8B8;}
	.st9{fill:#070707;}
	.st10{fill:#CBCBCB;}
</style>
<path id="fd60ad6d-234f-4794-b327-6c250fb58182" class="st0" d="M673,481.4c7.5,2.6,15.8,1.2,21.9-3.9c7.7-6.5,10.1-17.1,12.1-26.9
	l5.8-29.1l-12.1,8.4c-8.7,6-17.7,12.2-23.7,20.9s-8.7,20.6-3.8,30"/>
<path id="bb4d4dd3-dbdc-44b5-88db-bf6307e476a1" class="st1" d="M674,516.7c-1.2-9-2.5-18-1.6-27.1c0.8-8,3.2-15.9,8.2-22.3
	c2.6-3.4,5.9-6.3,9.5-8.6c1-0.6,1.8,0.9,0.9,1.5c-6.3,4-11.2,9.9-14,16.8c-3,7.7-3.5,16.2-3,24.4c0.3,5,1,9.9,1.7,14.8
	c0.1,0.5-0.2,0.9-0.6,1.1C674.6,517.4,674.1,517.1,674,516.7L674,516.7z"/>
<path id="fe08dba1-9a00-49ac-809e-caf1a04d3592" class="st0" d="M772.1,516.3c0,0-12.8-31.4,25.5-54.9L772.1,516.3z"/>
<path id="ae08b72c-0170-4ceb-bc44-c76ada017e82" class="st0" d="M756.4,515.7c0,0-3.9-22.4-34-22.2L756.4,515.7z"/>
<path class="st2" d="M51.7,241h280.4V43.3H51.7V241z"/>
<path class="st0" d="M338.1,247H45.7V37.3h292.4V247z M51.7,241h280.4V43.3H51.7L51.7,241z"/>
<polygon class="st3" points="26.9,222.9 24.8,222.9 24.8,21.9 305.2,21.9 305.2,24 26.9,24 "/>
<polygon class="st3" points="2.1,201 0,201 0,0 280.4,0 280.4,2.1 2.1,2.1 "/>
<ellipse class="st2" cx="191.9" cy="142.1" rx="60" ry="60.4"/>
<path class="st3" d="M191.9,203.5c-33.6,0-61-27.5-61-61.4s27.3-61.4,61-61.4c33.6,0,61,27.5,61,61.4S225.5,203.5,191.9,203.5z
	 M191.9,82.7c-32.5,0-59,26.6-59,59.4s26.4,59.4,59,59.4s59-26.6,59-59.4S224.4,82.7,191.9,82.7z"/>
<polygon class="st4" points="175.3,112.2 175.3,173.2 225.1,142.3 "/>
<polygon class="st5" points="515.3,504.6 504.1,504.6 498.8,461.5 515.3,461.5 "/>
<path d="M518.1,515.5l-36.1,0V515c0-7.8,6.3-14,14-14h0l22,0L518.1,515.5z"/>
<polygon class="st5" points="611.4,488.3 602,494.4 574,461.1 587.9,452.1 "/>
<path class="st6" d="M619.7,495.8l-30.2,19.7l-0.2-0.4c-4.2-6.5-2.4-15.2,4.1-19.4l0,0l18.5-12L619.7,495.8z"/>
<circle class="st7" cx="543.8" cy="87" r="10.3"/>
<path class="st7" d="M534.1,90.7c-3.4-4.5-2.5-11,2-14.4c1.4-1,3-1.7,4.6-2c-5.7-0.2-10.4,4.3-10.6,10s4.3,10.4,10,10.6
	c0.6,0,1.2,0,1.8-0.1C538.9,94.7,536,93.2,534.1,90.7z"/>
<ellipse transform="matrix(0.331 -0.9436 0.9436 0.331 240.1754 585.7119)" class="st7" cx="533.2" cy="123.5" rx="30.3" ry="30.3"/>
<path class="st7" d="M505,112.4c6.8-14.8,24.2-21.6,39.2-15.3c-0.3-0.2-0.6-0.3-0.9-0.5c-15.2-7-33.2-0.3-40.2,14.9
	c-7,15.2-0.3,33.2,14.9,40.2l0,0c0.3,0.1,0.6,0.3,0.9,0.4C504.3,144.8,498.1,127.3,505,112.4z"/>
<polygon class="st4" points="569.9,282.4 591.6,394.9 620.1,479 574,488.5 529.2,320.3 527.9,481.7 469.5,483.1 483.1,386.8 
	499.6,278.1 "/>
<circle class="st8" cx="533.3" cy="133.2" r="20.3"/>
<path class="st4" d="M552.3,163.6l-31.2,0.8l-21.7,10.9l2.7,62.4l-5.3,47.8c0,0-2,7.5,11.6,14.3c4.3,2.2,9.9,3.1,15.5,3.3
	c11.5,0.4,22.7-3.2,31.9-10.1c2.8-2.1,6-3.5,8.7-2.4c6.8,2.7,8.1-5.4,8.1-5.4l-8.1-39.3l12.2-37.4l-12.3-40.2L552.3,163.6z"/>
<polygon class="st7" points="514.5,111.9 514.5,134.6 519.7,134.6 526.4,127.4 525.5,134.6 548.7,134.6 547.3,127.4 550.1,134.6 
	553.8,134.6 553.8,111.9 "/>
<path class="st4" d="M557.9,127.6c-0.1-1.3-1.2-2.2-2.5-2.2h-2.5v16.4h2.5c1.3,0,2.3-1,2.5-2.2c2.6-0.7,4.3-3,4.3-5.6v-0.6
	C562.2,130.6,560.4,128.2,557.9,127.6z"/>
<path class="st4" d="M512.9,139.7h-2.8c-3.2,0-5.8-2.6-5.8-5.8v0v-0.6c0-3.2,2.6-5.8,5.8-5.8h0h2.8V139.7L512.9,139.7z"/>
<path class="st4" d="M513.6,141.7h-2.5c-1.4,0-2.5-1.1-2.5-2.5l0,0v-11.4c0-1.4,1.1-2.5,2.5-2.5h2.5V141.7L513.6,141.7z"/>
<path class="st4" d="M556.6,128.2h-1.8c0-12.9-9.6-23.4-21.3-23.4c-11.7,0-21.3,10.5-21.3,23.4h-1.8c0-13.9,10.4-25.2,23.1-25.2
	C546.2,103,556.6,114.3,556.6,128.2z"/>
<path class="st5" d="M482.2,318.4c4.1-2.3,5.7-7.5,3.4-11.6c-0.2-0.4-0.5-0.9-0.8-1.3l9.4-17.1l-9-8.3l-12.9,24.4
	c-3.5,3.2-3.7,8.7-0.5,12.2C474.4,319.6,478.7,320.3,482.2,318.4L482.2,318.4z"/>
<path class="st9" d="M506.2,175.2l-3.7-1.8c0,0-8.6,1.8-11.3,7.2s-9.5,61-9.5,61l-5.4,36.6c0,0-4.1,0-4.1,4.1s-5.4,14.9-1.4,14.9
	s20.3,0,23.1-2.7s8.1-13.6,6.8-14.9s-4.1-1.4-4.1-1.4l3.8-36.7L506.2,175.2z"/>
<path class="st5" d="M579.1,305.6c-3.4-3.2-3.6-8.7-0.4-12.1c0.3-0.4,0.7-0.7,1.1-1l-4.8-19l10.8-5.7l6.3,26.9
	c2.6,4,1.4,9.3-2.6,11.9C586.3,308.8,581.9,308.4,579.1,305.6L579.1,305.6z"/>
<path d="M565.4,229.6l3.8,36.7c0,0-2.7,0-4.1,1.4s4.1,12.2,6.8,14.9c2.7,2.7,19,2.7,23.1,2.7s-1.4-10.9-1.4-14.9s-4.1-4.1-4.1-4.1
	l-5.4-36.6c0,0-6.8-49.6-9.5-55c-2.7-5.4-11.3-7.2-11.3-7.2l-3.7,1.8L565.4,229.6z"/>
<path class="st3" d="M491.1,306l-0.2,0.1l-3-4.8c-1-1.5-3-2-4.5-1l0,0l-10.2,6.4c-1.5,1-2,3-1,4.5l0,0l16.7,26.3c1,1.5,3,2,4.5,1
	c0,0,0,0,0,0l10.2-6.4c1.5-1,2-3,1-4.5l0,0L493,309.5l0.2-0.1L491.1,306z"/>
<path class="st4" d="M487.3,301.7l16.7,26.3c0.7,1.1,0.4,2.7-0.8,3.4l-10.2,6.5c-1.1,0.7-2.7,0.4-3.4-0.8l-16.7-26.3
	c-0.7-1.1-0.4-2.7,0.8-3.4l1.2-0.8c0.1,0.6,0.7,1.1,1.4,0.9c0.1,0,0.3-0.1,0.4-0.2l5.8-3.7c0.5-0.3,0.7-1.1,0.4-1.6
	c-0.1-0.1-0.2-0.2-0.3-0.3l1.3-0.8C485,300.2,486.5,300.6,487.3,301.7z"/>
<path class="st10" d="M789.3,517.3h-381c-0.6,0-1-0.4-1-1c0-0.6,0.4-1,1-1h381c0.6,0,1,0.4,1,1C790.3,516.9,789.8,517.3,789.3,517.3
	z"/>
</svg>
